<?xml version="1.0" encoding="UTF-8" standalone="no"?>
<!DOCTYPE svg PUBLIC "-//W3C//DTD SVG 1.1//EN"
 "http://www.w3.org/Graphics/SVG/1.1/DTD/svg11.dtd">
<!-- Generated by graphviz version 2.43.0 (0)
 -->
<!-- Title: structs Pages: 1 -->
<svg width="1079pt" height="594pt"
 viewBox="0.00 0.00 1079.00 594.00" xmlns="http://www.w3.org/2000/svg" xmlns:xlink="http://www.w3.org/1999/xlink">
<g id="graph0" class="graph" transform="scale(1 1) rotate(0) translate(4 590)">
<title>structs</title>
<polygon fill="white" stroke="transparent" points="-4,4 -4,-590 1075,-590 1075,4 -4,4"/>
<!-- segs_to_native_wf_aseginputnode -->
<g id="node1" class="node">
<title>segs_to_native_wf_aseginputnode</title>
<polygon fill="none" stroke="black" points="0,-470.5 0,-585.5 271,-585.5 271,-470.5 0,-470.5"/>
<text text-anchor="middle" x="17" y="-524.3" font-family="Times,serif" font-size="14.00">IN</text>
<polyline fill="none" stroke="black" points="34,-470.5 34,-585.5 "/>
<text text-anchor="middle" x="78.5" y="-562.8" font-family="Times,serif" font-size="14.00">inputnode</text>
<polyline fill="none" stroke="black" points="34,-547.5 123,-547.5 "/>
<text text-anchor="middle" x="78.5" y="-524.8" font-family="Times,serif" font-size="14.00">utility</text>
<polyline fill="none" stroke="black" points="34,-509.5 123,-509.5 "/>
<text text-anchor="middle" x="78.5" y="-486.3" font-family="Times,serif" font-size="14.00"> </text>
<polyline fill="none" stroke="black" points="123,-470.5 123,-585.5 "/>
<text text-anchor="middle" x="197" y="-570.3" font-family="Times,serif" font-size="14.00">OUT</text>
<polyline fill="none" stroke="black" points="123,-562.5 271,-562.5 "/>
<text text-anchor="middle" x="197" y="-547.3" font-family="Times,serif" font-size="14.00">fsnative2anat_xfm</text>
<polyline fill="none" stroke="black" points="123,-539.5 271,-539.5 "/>
<text text-anchor="middle" x="197" y="-524.3" font-family="Times,serif" font-size="14.00">in_file</text>
<polyline fill="none" stroke="black" points="123,-516.5 271,-516.5 "/>
<text text-anchor="middle" x="197" y="-501.3" font-family="Times,serif" font-size="14.00">subject_id</text>
<polyline fill="none" stroke="black" points="123,-493.5 271,-493.5 "/>
<text text-anchor="middle" x="197" y="-478.3" font-family="Times,serif" font-size="14.00">subjects_dir</text>
</g>
<!-- segs_to_native_wf_asegfs_datasource -->
<g id="node2" class="node">
<title>segs_to_native_wf_asegfs_datasource</title>
<polygon fill="none" stroke="black" points="271.5,-364.5 271.5,-433.5 539.5,-433.5 539.5,-364.5 271.5,-364.5"/>
<text text-anchor="middle" x="323" y="-418.3" font-family="Times,serif" font-size="14.00">IN</text>
<polyline fill="none" stroke="black" points="271.5,-410.5 374.5,-410.5 "/>
<text text-anchor="middle" x="323" y="-395.3" font-family="Times,serif" font-size="14.00">subject_id</text>
<polyline fill="none" stroke="black" points="271.5,-387.5 374.5,-387.5 "/>
<text text-anchor="middle" x="323" y="-372.3" font-family="Times,serif" font-size="14.00">subjects_dir</text>
<polyline fill="none" stroke="black" points="374.5,-364.5 374.5,-433.5 "/>
<text text-anchor="middle" x="432" y="-418.3" font-family="Times,serif" font-size="14.00">fs_datasource</text>
<polyline fill="none" stroke="black" points="374.5,-410.5 489.5,-410.5 "/>
<text text-anchor="middle" x="432" y="-395.3" font-family="Times,serif" font-size="14.00">patches</text>
<polyline fill="none" stroke="black" points="374.5,-387.5 489.5,-387.5 "/>
<text text-anchor="middle" x="432" y="-372.3" font-family="Times,serif" font-size="14.00"> </text>
<polyline fill="none" stroke="black" points="489.5,-364.5 489.5,-433.5 "/>
<text text-anchor="middle" x="514.5" y="-418.3" font-family="Times,serif" font-size="14.00">OUT</text>
<polyline fill="none" stroke="black" points="489.5,-410.5 539.5,-410.5 "/>
<text text-anchor="middle" x="514.5" y="-395.3" font-family="Times,serif" font-size="14.00">T1</text>
<polyline fill="none" stroke="black" points="489.5,-387.5 539.5,-387.5 "/>
<text text-anchor="middle" x="514.5" y="-372.3" font-family="Times,serif" font-size="14.00">aseg</text>
</g>
<!-- segs_to_native_wf_aseginputnode&#45;&gt;segs_to_native_wf_asegfs_datasource -->
<g id="edge6" class="edge">
<title>segs_to_native_wf_aseginputnode:e&#45;&gt;segs_to_native_wf_asegfs_datasource:w</title>
<path fill="none" stroke="black" d="M272.5,-505C292.1,-505 261.39,-431.62 264.09,-406.97"/>
<polygon fill="black" stroke="black" points="266.96,-408.99 270.5,-399 261.5,-404.6 266.96,-408.99"/>
</g>
<!-- segs_to_native_wf_aseginputnode&#45;&gt;segs_to_native_wf_asegfs_datasource -->
<g id="edge7" class="edge">
<title>segs_to_native_wf_aseginputnode:e&#45;&gt;segs_to_native_wf_asegfs_datasource:w</title>
<path fill="none" stroke="black" d="M272.5,-482C293.84,-482 271.91,-455.33 271.5,-434 271.1,-413.06 253.67,-387.86 260.98,-379.14"/>
<polygon fill="black" stroke="black" points="262.1,-382.46 270.5,-376 259.91,-375.81 262.1,-382.46"/>
</g>
<!-- segs_to_native_wf_aseglta -->
<g id="node3" class="node">
<title>segs_to_native_wf_aseglta</title>
<polygon fill="none" stroke="black" points="243.5,-235.5 243.5,-327.5 511.5,-327.5 511.5,-235.5 243.5,-235.5"/>
<text text-anchor="middle" x="286" y="-312.3" font-family="Times,serif" font-size="14.00">IN</text>
<polyline fill="none" stroke="black" points="243.5,-304.5 328.5,-304.5 "/>
<text text-anchor="middle" x="286" y="-289.3" font-family="Times,serif" font-size="14.00">in_xfms</text>
<polyline fill="none" stroke="black" points="243.5,-281.5 328.5,-281.5 "/>
<text text-anchor="middle" x="286" y="-266.3" font-family="Times,serif" font-size="14.00">moving</text>
<polyline fill="none" stroke="black" points="243.5,-258.5 328.5,-258.5 "/>
<text text-anchor="middle" x="286" y="-243.3" font-family="Times,serif" font-size="14.00">reference</text>
<polyline fill="none" stroke="black" points="328.5,-235.5 328.5,-327.5 "/>
<text text-anchor="middle" x="383" y="-308.8" font-family="Times,serif" font-size="14.00">lta</text>
<polyline fill="none" stroke="black" points="328.5,-297.5 437.5,-297.5 "/>
<text text-anchor="middle" x="383" y="-278.3" font-family="Times,serif" font-size="14.00">nitransforms</text>
<polyline fill="none" stroke="black" points="328.5,-266.5 437.5,-266.5 "/>
<text text-anchor="middle" x="383" y="-247.3" font-family="Times,serif" font-size="14.00"> </text>
<polyline fill="none" stroke="black" points="437.5,-235.5 437.5,-327.5 "/>
<text text-anchor="middle" x="474.5" y="-300.8" font-family="Times,serif" font-size="14.00">OUT</text>
<polyline fill="none" stroke="black" points="437.5,-281.5 511.5,-281.5 "/>
<text text-anchor="middle" x="474.5" y="-254.8" font-family="Times,serif" font-size="14.00">out_xfm</text>
</g>
<!-- segs_to_native_wf_aseginputnode&#45;&gt;segs_to_native_wf_aseglta -->
<g id="edge3" class="edge">
<title>segs_to_native_wf_aseginputnode:e&#45;&gt;segs_to_native_wf_aseglta:w</title>
<path fill="none" stroke="black" d="M272.5,-551C308.5,-551 286.75,-502.62 271.5,-470 261.09,-447.73 239.77,-456.34 229.5,-434 204.83,-380.36 182.55,-303.2 232.35,-294.34"/>
<polygon fill="black" stroke="black" points="232.82,-297.81 242.5,-293.5 232.25,-290.83 232.82,-297.81"/>
</g>
<!-- segs_to_native_wf_aseginputnode&#45;&gt;segs_to_native_wf_aseglta -->
<g id="edge4" class="edge">
<title>segs_to_native_wf_aseginputnode:e&#45;&gt;segs_to_native_wf_aseglta:w</title>
<path fill="none" stroke="black" d="M272.5,-528C298.28,-528 274.87,-495.56 271.5,-470 269.34,-453.65 265.96,-450.13 262.5,-434 252.47,-387.2 248.03,-375.65 243.5,-328 240.47,-296.16 213.78,-257.02 232.49,-248.28"/>
<polygon fill="black" stroke="black" points="233.27,-251.7 242.5,-246.5 232.04,-244.81 233.27,-251.7"/>
</g>
<!-- segs_to_native_wf_asegresample -->
<g id="node4" class="node">
<title>segs_to_native_wf_asegresample</title>
<polygon fill="none" stroke="black" points="540,-106.5 540,-198.5 855,-198.5 855,-106.5 540,-106.5"/>
<text text-anchor="middle" x="586" y="-183.3" font-family="Times,serif" font-size="14.00">IN</text>
<polyline fill="none" stroke="black" points="540,-175.5 632,-175.5 "/>
<text text-anchor="middle" x="586" y="-160.3" font-family="Times,serif" font-size="14.00">lta_file</text>
<polyline fill="none" stroke="black" points="540,-152.5 632,-152.5 "/>
<text text-anchor="middle" x="586" y="-137.3" font-family="Times,serif" font-size="14.00">source_file</text>
<polyline fill="none" stroke="black" points="540,-129.5 632,-129.5 "/>
<text text-anchor="middle" x="586" y="-114.3" font-family="Times,serif" font-size="14.00">target_file</text>
<polyline fill="none" stroke="black" points="632,-106.5 632,-198.5 "/>
<text text-anchor="middle" x="676.5" y="-179.8" font-family="Times,serif" font-size="14.00">resample</text>
<polyline fill="none" stroke="black" points="632,-168.5 721,-168.5 "/>
<text text-anchor="middle" x="676.5" y="-149.3" font-family="Times,serif" font-size="14.00">freesurfer</text>
<polyline fill="none" stroke="black" points="632,-137.5 721,-137.5 "/>
<text text-anchor="middle" x="676.5" y="-118.3" font-family="Times,serif" font-size="14.00"> </text>
<polyline fill="none" stroke="black" points="721,-106.5 721,-198.5 "/>
<text text-anchor="middle" x="788" y="-171.8" font-family="Times,serif" font-size="14.00">OUT</text>
<polyline fill="none" stroke="black" points="721,-152.5 855,-152.5 "/>
<text text-anchor="middle" x="788" y="-125.8" font-family="Times,serif" font-size="14.00">transformed_file</text>
</g>
<!-- segs_to_native_wf_aseginputnode&#45;&gt;segs_to_native_wf_asegresample -->
<g id="edge5" class="edge">
<title>segs_to_native_wf_aseginputnode:e&#45;&gt;segs_to_native_wf_asegresample:w</title>
<path fill="none" stroke="black" d="M272.5,-528C337.29,-528 508.35,-484.85 548.5,-434 603.37,-364.49 579.79,-320.96 558.5,-235 554.15,-217.44 543.96,-216.53 539.5,-199 531.59,-167.87 508.44,-127.87 528.55,-119.2"/>
<polygon fill="black" stroke="black" points="529.23,-122.64 538.5,-117.5 528.05,-115.74 529.23,-122.64"/>
</g>
<!-- segs_to_native_wf_asegfs_datasource&#45;&gt;segs_to_native_wf_aseglta -->
<g id="edge1" class="edge">
<title>segs_to_native_wf_asegfs_datasource:e&#45;&gt;segs_to_native_wf_aseglta:w</title>
<path fill="none" stroke="black" d="M540.5,-399C556.06,-399 549.98,-375.5 539.5,-364 450.22,-266.06 332.22,-426.45 243.5,-328 228.81,-311.7 219.69,-281.26 232.81,-272.14"/>
<polygon fill="black" stroke="black" points="233.77,-275.51 242.5,-269.5 231.93,-268.76 233.77,-275.51"/>
</g>
<!-- segs_to_native_wf_asegfs_datasource&#45;&gt;segs_to_native_wf_asegresample -->
<g id="edge2" class="edge">
<title>segs_to_native_wf_asegfs_datasource:e&#45;&gt;segs_to_native_wf_asegresample:w</title>
<path fill="none" stroke="black" d="M540.5,-376C588.75,-376 501.86,-175.86 528.99,-144.59"/>
<polygon fill="black" stroke="black" points="530.7,-147.67 538.5,-140.5 527.93,-141.23 530.7,-147.67"/>
</g>
<!-- segs_to_native_wf_aseglta&#45;&gt;segs_to_native_wf_asegresample -->
<g id="edge8" class="edge">
<title>segs_to_native_wf_aseglta:e&#45;&gt;segs_to_native_wf_asegresample:w</title>
<path fill="none" stroke="black" d="M512.5,-258.5C530.7,-258.5 521.38,-192.2 530.77,-170.96"/>
<polygon fill="black" stroke="black" points="533.07,-173.6 538.5,-164.5 528.58,-168.23 533.07,-173.6"/>
</g>
<!-- segs_to_native_wf_asegoutputnode -->
<g id="node5" class="node">
<title>segs_to_native_wf_asegoutputnode</title>
<polygon fill="none" stroke="black" points="856,-0.5 856,-69.5 1071,-69.5 1071,-0.5 856,-0.5"/>
<text text-anchor="middle" x="890" y="-48.8" font-family="Times,serif" font-size="14.00">IN</text>
<polyline fill="none" stroke="black" points="856,-35.5 924,-35.5 "/>
<text text-anchor="middle" x="890" y="-14.3" font-family="Times,serif" font-size="14.00">out_file</text>
<polyline fill="none" stroke="black" points="924,-0.5 924,-69.5 "/>
<text text-anchor="middle" x="973" y="-54.3" font-family="Times,serif" font-size="14.00">outputnode</text>
<polyline fill="none" stroke="black" points="924,-46.5 1022,-46.5 "/>
<text text-anchor="middle" x="973" y="-31.3" font-family="Times,serif" font-size="14.00">utility</text>
<polyline fill="none" stroke="black" points="924,-23.5 1022,-23.5 "/>
<text text-anchor="middle" x="973" y="-8.3" font-family="Times,serif" font-size="14.00"> </text>
<polyline fill="none" stroke="black" points="1022,-0.5 1022,-69.5 "/>
<text text-anchor="middle" x="1046.5" y="-31.3" font-family="Times,serif" font-size="14.00">OUT</text>
</g>
<!-- segs_to_native_wf_asegresample&#45;&gt;segs_to_native_wf_asegoutputnode -->
<g id="edge9" class="edge">
<title>segs_to_native_wf_asegresample:e&#45;&gt;segs_to_native_wf_asegoutputnode:w</title>
<path fill="none" stroke="black" d="M856.5,-129.5C901.61,-129.5 821.89,-37.14 844.57,-20.54"/>
<polygon fill="black" stroke="black" points="845.68,-23.87 854.5,-18 843.94,-17.09 845.68,-23.87"/>
</g>
</g>
</svg>
