<?xml version="1.0" encoding="UTF-8" standalone="no"?>
<!DOCTYPE svg PUBLIC "-//W3C//DTD SVG 1.1//EN"
 "http://www.w3.org/Graphics/SVG/1.1/DTD/svg11.dtd">
<!-- Generated by graphviz version 2.43.0 (0)
 -->
<!-- Title: %3 Pages: 1 -->
<svg width="332pt" height="332pt"
 viewBox="0.00 0.00 332.43 332.00" xmlns="http://www.w3.org/2000/svg" xmlns:xlink="http://www.w3.org/1999/xlink">
<g id="graph0" class="graph" transform="scale(1 1) rotate(0) translate(4 328)">
<title>%3</title>
<polygon fill="white" stroke="transparent" points="-4,4 -4,-328 328.43,-328 328.43,4 -4,4"/>
<!-- inputnode (utility) -->
<g id="node1" class="node">
<title>inputnode (utility)</title>
<ellipse fill="none" stroke="black" cx="158.94" cy="-306" rx="94.78" ry="18"/>
<text text-anchor="middle" x="158.94" y="-302.3" font-family="Times,serif" font-size="14.00">inputnode (utility)</text>
</g>
<!-- fs_datasource (patches) -->
<g id="node2" class="node">
<title>fs_datasource (patches)</title>
<ellipse fill="none" stroke="black" cx="158.94" cy="-234" rx="120.48" ry="18"/>
<text text-anchor="middle" x="158.94" y="-230.3" font-family="Times,serif" font-size="14.00">fs_datasource (patches)</text>
</g>
<!-- inputnode (utility)&#45;&gt;fs_datasource (patches) -->
<g id="edge1" class="edge">
<title>inputnode (utility)&#45;&gt;fs_datasource (patches)</title>
<path fill="none" stroke="black" d="M158.94,-287.7C158.94,-279.98 158.94,-270.71 158.94,-262.11"/>
<polygon fill="black" stroke="black" points="162.44,-262.1 158.94,-252.1 155.44,-262.1 162.44,-262.1"/>
</g>
<!-- lta (nitransforms) -->
<g id="node3" class="node">
<title>lta (nitransforms)</title>
<ellipse fill="none" stroke="black" cx="92.94" cy="-162" rx="92.88" ry="18"/>
<text text-anchor="middle" x="92.94" y="-158.3" font-family="Times,serif" font-size="14.00">lta (nitransforms)</text>
</g>
<!-- inputnode (utility)&#45;&gt;lta (nitransforms) -->
<g id="edge2" class="edge">
<title>inputnode (utility)&#45;&gt;lta (nitransforms)</title>
<path fill="none" stroke="black" d="M91.34,-293.26C67.88,-285.59 43.96,-272.92 29.94,-252 21.03,-238.71 23.19,-230.51 29.94,-216 35.56,-203.94 45.42,-193.64 55.7,-185.41"/>
<polygon fill="black" stroke="black" points="58.03,-188.05 63.96,-179.27 53.85,-182.43 58.03,-188.05"/>
</g>
<!-- resample (freesurfer) -->
<g id="node4" class="node">
<title>resample (freesurfer)</title>
<ellipse fill="none" stroke="black" cx="213.94" cy="-90" rx="110.48" ry="18"/>
<text text-anchor="middle" x="213.94" y="-86.3" font-family="Times,serif" font-size="14.00">resample (freesurfer)</text>
</g>
<!-- inputnode (utility)&#45;&gt;resample (freesurfer) -->
<g id="edge3" class="edge">
<title>inputnode (utility)&#45;&gt;resample (freesurfer)</title>
<path fill="none" stroke="black" d="M226.54,-293.26C250,-285.59 273.92,-272.92 287.94,-252 318.07,-207.05 271.86,-147.86 239.99,-115.22"/>
<polygon fill="black" stroke="black" points="242.2,-112.49 232.65,-107.9 237.26,-117.44 242.2,-112.49"/>
</g>
<!-- fs_datasource (patches)&#45;&gt;lta (nitransforms) -->
<g id="edge4" class="edge">
<title>fs_datasource (patches)&#45;&gt;lta (nitransforms)</title>
<path fill="none" stroke="black" d="M142.96,-216.05C134.78,-207.37 124.66,-196.64 115.68,-187.11"/>
<polygon fill="black" stroke="black" points="118.18,-184.66 108.77,-179.79 113.08,-189.47 118.18,-184.66"/>
</g>
<!-- fs_datasource (patches)&#45;&gt;resample (freesurfer) -->
<g id="edge5" class="edge">
<title>fs_datasource (patches)&#45;&gt;resample (freesurfer)</title>
<path fill="none" stroke="black" d="M173.11,-215.85C180.63,-205.93 189.44,-192.89 194.94,-180 203.35,-160.29 208.19,-136.49 210.87,-118.46"/>
<polygon fill="black" stroke="black" points="214.37,-118.71 212.24,-108.33 207.43,-117.76 214.37,-118.71"/>
</g>
<!-- lta (nitransforms)&#45;&gt;resample (freesurfer) -->
<g id="edge6" class="edge">
<title>lta (nitransforms)&#45;&gt;resample (freesurfer)</title>
<path fill="none" stroke="black" d="M121.01,-144.76C137.41,-135.27 158.34,-123.17 176.18,-112.84"/>
<polygon fill="black" stroke="black" points="178.29,-115.67 185.19,-107.63 174.78,-109.61 178.29,-115.67"/>
</g>
<!-- outputnode (utility) -->
<g id="node5" class="node">
<title>outputnode (utility)</title>
<ellipse fill="none" stroke="black" cx="213.94" cy="-18" rx="101.28" ry="18"/>
<text text-anchor="middle" x="213.94" y="-14.3" font-family="Times,serif" font-size="14.00">outputnode (utility)</text>
</g>
<!-- resample (freesurfer)&#45;&gt;outputnode (utility) -->
<g id="edge7" class="edge">
<title>resample (freesurfer)&#45;&gt;outputnode (utility)</title>
<path fill="none" stroke="black" d="M213.94,-71.7C213.94,-63.98 213.94,-54.71 213.94,-46.11"/>
<polygon fill="black" stroke="black" points="217.44,-46.1 213.94,-36.1 210.44,-46.1 217.44,-46.1"/>
</g>
</g>
</svg>
